<svg width="34" height="35" viewBox="0 0 34 35" fill="none" xmlns="http://www.w3.org/2000/svg">
<path d="M33.5999 17.3805C33.5999 26.6589 26.0783 34.1805 16.7999 34.1805C7.52159 34.1805 0 26.6589 0 17.3805C0 8.10216 7.52159 0.580566 16.7999 0.580566C26.0783 0.580566 33.5999 8.10216 33.5999 17.3805Z" fill="#F53838" style="fill:#F53838;fill:color(display-p3 0.9608 0.2196 0.2196);fill-opacity:1;"/>
<path d="M16.7999 0.580566C7.52159 0.580566 0 8.10216 0 17.3805C0 26.6589 7.52159 34.1805 16.7999 34.1805C26.0783 34.1805 33.5999 26.6589 33.5999 17.3805C33.5999 8.10216 26.0783 0.580566 16.7999 0.580566ZM20.7794 12.1901H18.2541C17.9549 12.1901 17.6224 12.5838 17.6224 13.1071V14.9306H20.7811L20.3034 17.5311H17.6224V25.3378H14.6421V17.5311H11.9384V14.9306H14.6421V13.4011C14.6421 11.2066 16.1646 9.42332 18.2541 9.42332H20.7794V12.1901Z" fill="white" style="fill:white;fill:white;fill-opacity:1;"/>
</svg>
