<svg width="34" height="35" viewBox="0 0 34 35" fill="none" xmlns="http://www.w3.org/2000/svg">
<path d="M33.8001 17.3805C33.8001 26.6589 26.2785 34.1805 17.0001 34.1805C7.72179 34.1805 0.200195 26.6589 0.200195 17.3805C0.200195 8.10216 7.72179 0.580566 17.0001 0.580566C26.2785 0.580566 33.8001 8.10216 33.8001 17.3805Z" fill="#F53838" style="fill:#F53838;fill:color(display-p3 0.9608 0.2196 0.2196);fill-opacity:1;"/>
<path d="M22.2501 17.3806C22.2501 18.773 21.697 20.1083 20.7124 21.0929C19.7278 22.0774 18.3925 22.6306 17.0001 22.6306C15.6077 22.6306 14.2723 22.0774 13.2878 21.0929C12.3032 20.1083 11.7501 18.773 11.7501 17.3806C11.7501 17.0813 11.7816 16.7891 11.8358 16.5056H10.0001V23.5003C10.0001 23.9868 10.3938 24.3806 10.8803 24.3806H23.1216C23.3547 24.3801 23.5782 24.2872 23.7429 24.1221C23.9076 23.9571 24.0001 23.7335 24.0001 23.5003V16.5056H22.1643C22.2186 16.7891 22.2501 17.0813 22.2501 17.3806ZM17.0001 20.8806C17.4598 20.8805 17.915 20.7898 18.3397 20.6137C18.7644 20.4377 19.1503 20.1797 19.4753 19.8546C19.8003 19.5294 20.0581 19.1434 20.2339 18.7186C20.4098 18.2938 20.5002 17.8386 20.5001 17.3788C20.5 16.9191 20.4093 16.4639 20.2333 16.0392C20.0572 15.6145 19.7992 15.2286 19.4741 14.9036C19.1489 14.5786 18.7629 14.3208 18.3381 14.145C17.9133 13.9691 17.4581 13.8787 16.9983 13.8788C16.0698 13.8791 15.1795 14.2481 14.5231 14.9048C13.8667 15.5615 13.4981 16.4521 13.4983 17.3806C13.4986 18.3091 13.8676 19.1994 14.5243 19.8558C15.181 20.5122 16.0716 20.8808 17.0001 20.8806ZM21.2001 13.7056H23.2983C23.4377 13.7056 23.5714 13.6503 23.6702 13.5519C23.7689 13.4535 23.8246 13.32 23.8251 13.1806V11.0823C23.8251 10.9426 23.7696 10.8086 23.6708 10.7098C23.572 10.6111 23.438 10.5556 23.2983 10.5556H21.2001C21.0604 10.5556 20.9264 10.6111 20.8276 10.7098C20.7288 10.8086 20.6733 10.9426 20.6733 11.0823V13.1806C20.6751 13.4693 20.9113 13.7056 21.2001 13.7056ZM17.0001 0.580566C12.5445 0.580566 8.27129 2.35056 5.12068 5.50117C1.97007 8.65178 0.200195 12.9249 0.200195 17.3805C0.200195 21.8361 1.97007 26.1094 5.12068 29.26C8.27129 32.4106 12.5445 34.1805 17.0001 34.1805C19.2063 34.1805 21.3909 33.746 23.4292 32.9017C25.4674 32.0575 27.3194 30.82 28.8795 29.26C30.4395 27.6999 31.677 25.8479 32.5213 23.8097C33.3655 21.7714 33.8001 19.5867 33.8001 17.3805C33.8001 15.1743 33.3655 12.9898 32.5213 10.9515C31.677 8.91322 30.4395 7.0612 28.8795 5.50117C27.3194 3.94115 25.4674 2.70367 23.4292 1.85939C21.3909 1.01511 19.2063 0.580566 17.0001 0.580566ZM25.7501 24.1863C25.7501 25.2556 24.8751 26.1306 23.8058 26.1306H10.1943C9.12507 26.1306 8.25007 25.2556 8.25007 24.1863V10.5748C8.25007 9.50557 9.12507 8.63057 10.1943 8.63057H23.8058C24.8751 8.63057 25.7501 9.50557 25.7501 10.5748V24.1863Z" fill="white" style="fill:white;fill:white;fill-opacity:1;"/>
</svg>
