<svg width="14" height="14" viewBox="0 0 14 14" fill="none" xmlns="http://www.w3.org/2000/svg">
<path d="M13.189 5.16509L9.22178 4.58853L7.44834 0.993219C7.39991 0.894781 7.32022 0.815094 7.22178 0.766656C6.97491 0.644781 6.67491 0.746344 6.55147 0.993219L4.77803 4.58853L0.810845 5.16509C0.70147 5.18072 0.60147 5.23228 0.524907 5.31041C0.432347 5.40554 0.381343 5.53353 0.383101 5.66625C0.384859 5.79897 0.439235 5.92557 0.534282 6.01822L3.40459 8.81666L2.72647 12.7682C2.71057 12.8601 2.72074 12.9547 2.75583 13.0411C2.79093 13.1276 2.84953 13.2024 2.92501 13.2572C3.00049 13.3121 3.08982 13.3446 3.18288 13.3513C3.27593 13.3579 3.36898 13.3383 3.45147 13.2948L6.99991 11.4292L10.5483 13.2948C10.6452 13.3463 10.7577 13.3635 10.8655 13.3448C11.1374 13.2979 11.3202 13.0401 11.2733 12.7682L10.5952 8.81666L13.4655 6.01822C13.5437 5.94166 13.5952 5.84166 13.6108 5.73228C13.653 5.45884 13.4624 5.20572 13.189 5.16509Z" fill="#FEA250" style="fill:#FEA250;fill:color(display-p3 0.9961 0.6353 0.3137);fill-opacity:1;"/>
</svg>
